<?xml version="1.0" encoding="UTF-8"?>
<svg id="Layer_1" data-name="Layer 1" xmlns="http://www.w3.org/2000/svg" viewBox="0 0 1080 1080">
  <defs>
    <style>
      .cls-1 {
        fill: #fff;
      }
    </style>
  </defs>
  <circle cx="540" cy="540" r="540"/>
  <path class="cls-1" d="M713.6,281.02h-182.32c-20.73,0-40.61,8.17-55.25,22.81l-214.64,214.64c-30.49,30.49-30.49,79.88,0,110.37l162.81,162.81c30.49,30.49,79.88,30.49,110.37,0l214.64-214.64c14.63-14.63,22.81-34.51,22.81-55.25l.12-182.2c0-32.32-26.22-58.54-58.54-58.54ZM469.32,729.6c-7.57,7.57-19.84,7.57-27.42,0l-57.85-57.85c-7.57-7.57-7.57-19.84,0-27.42h0c7.57-7.57,19.84-7.57,27.42,0l57.85,57.85c7.57,7.57,7.57,19.84,0,27.42ZM521.47,677.46h0c-7.57,7.57-19.84,7.57-27.42,0l-129.91-129.91c-7.57-7.57-7.57-19.84,0-27.42h0c7.57-7.57,19.84-7.57,27.42,0l129.91,129.91c7.57,7.57,7.57,19.84,0,27.42ZM572.86,626.06c-7.57,7.57-19.84,7.57-27.42,0l-96.47-96.47c-7.57-7.57-7.57-19.84,0-27.42h0c7.57-7.57,19.84-7.57,27.42,0l96.47,96.47c7.57,7.57,7.57,19.84,0,27.42ZM635.54,456.64c-21.55,0-39.03-17.47-39.03-39.03s17.47-39.03,39.03-39.03,39.03,17.47,39.03,39.03-17.47,39.03-39.03,39.03Z"/>
</svg>